#N canvas 795 214 686 390 10;
#X declare -lib bsaylor;
#X obj 39 27 looper \$1;
#X obj 38 92 ambicube~ p c;
#X obj 174 27 inlet;
#X text 32 9 loop sample;
#X text 209 9 distance;
#X text 267 9 angle;
#X text 307 9 height;
#X obj 174 44 unpack f f f f;
#X obj 38 61 Env;
#X text 172 9 power;
#X obj 38 270 throw~ speaker1;
#X obj 47 250 throw~ speaker2;
#X obj 59 230 throw~ speaker3;
#X obj 70 210 throw~ speaker4;
#X obj 81 190 throw~ speaker5;
#X obj 90 170 throw~ speaker6;
#X obj 102 150 throw~ speaker7;
#X obj 113 130 throw~ speaker8;
#X connect 0 0 8 0;
#X connect 1 0 10 0;
#X connect 1 1 11 0;
#X connect 1 2 12 0;
#X connect 1 3 13 0;
#X connect 1 4 14 0;
#X connect 1 5 15 0;
#X connect 1 6 16 0;
#X connect 1 7 17 0;
#X connect 2 0 7 0;
#X connect 7 0 8 1;
#X connect 7 1 1 1;
#X connect 7 2 1 2;
#X connect 7 3 1 3;
#X connect 8 0 1 0;
