#N canvas 2275 401 450 300 10;
#X obj 96 48 inlet;
#X obj 96 134 outlet;
#X msg 123 90 stop;
#X obj 96 73 t b b;
#X obj 218 65 outlet;
#X connect 0 0 3 0;
#X connect 0 0 4 0;
#X connect 2 0 1 0;
#X connect 3 0 1 0;
#X connect 3 1 2 0;
