#N canvas 577 758 450 300 10;
#X obj 39 49 inlet~;
#X obj 38 185 outlet~;
#X obj 124 49 inlet;
#X obj 175 49 inlet;
#X text 123 29 peak;
#X text 172 28 overall t;
#X obj 175 72 / 4;
#X obj 38 167 *~;
#X msg 124 130 1;
#X obj 253 89 * 3;
#X obj 124 72 t b b f;
#X obj 74 106 del 1000;
#X msg 74 129 0;
#X obj 124 151 adsr 1 30 120 100 850;
#X connect 0 0 7 0;
#X connect 2 0 10 0;
#X connect 3 0 6 0;
#X connect 6 0 9 0;
#X connect 6 0 13 2;
#X connect 6 0 13 3;
#X connect 7 0 1 0;
#X connect 8 0 13 0;
#X connect 9 0 11 1;
#X connect 9 0 13 5;
#X connect 10 0 11 0;
#X connect 10 1 8 0;
#X connect 10 2 13 1;
#X connect 11 0 12 0;
#X connect 12 0 13 0;
#X connect 13 0 7 1;
