#N canvas 943 203 686 390 10;
#X declare -lib bsaylor;
#X obj 39 27 looper \$1;
#X obj 135 27 inlet;
#X text 32 9 loop sample;
#X text 170 9 distance;
#X text 228 9 angle;
#X obj 38 96 Env;
#X text 133 9 power;
#X obj 39 321 throw~ speaker1;
#X obj 62 301 throw~ speaker2;
#X obj 85 281 throw~ speaker3;
#X obj 108 261 throw~ speaker4;
#X obj 85 79 line;
#X msg 85 61 \$1 200;
#X text 299 355 LineCubeLooper patch by Ulrich Brandstätter 2013;
#X obj 135 44 unpack f f f;
#X obj 39 134 ambipan~ 4 p;
#X connect 0 0 5 0;
#X connect 1 0 14 0;
#X connect 5 0 15 0;
#X connect 11 0 5 1;
#X connect 12 0 11 0;
#X connect 14 0 12 0;
#X connect 14 1 15 1;
#X connect 14 2 15 2;
#X connect 15 0 7 0;
#X connect 15 1 8 0;
#X connect 15 2 9 0;
#X connect 15 3 10 0;
