#N canvas 566 433 686 390 10;
#X obj 135 27 inlet;
#X text 32 9 loop sample;
#X text 170 9 distance;
#X text 228 9 angle;
#X obj 38 96 Env;
#X text 133 9 power;
#X obj 39 321 throw~ speaker1;
#X obj 62 301 throw~ speaker2;
#X obj 85 281 throw~ speaker3;
#X obj 108 261 throw~ speaker4;
#X obj 85 79 line;
#X obj 135 44 unpack f f f;
#X obj 39 134 ambipan~ 4 p;
#X obj 38 26 osc~ 110;
#X text 299 355 LinePanOsc patch by Ulrich Brandstätter 2013;
#X msg 85 61 \$1 20;
#X connect 0 0 11 0;
#X connect 4 0 12 0;
#X connect 10 0 4 1;
#X connect 11 0 15 0;
#X connect 11 1 12 1;
#X connect 11 2 12 2;
#X connect 12 0 6 0;
#X connect 12 1 7 0;
#X connect 12 2 8 0;
#X connect 12 3 9 0;
#X connect 13 0 4 0;
#X connect 15 0 10 0;
