#N canvas 2235 259 686 419 10;
#X declare -lib bsaylor;
#X obj 265 27 inlet;
#X text 300 9 distance;
#X text 358 9 angle;
#X obj 38 96 Env;
#X text 263 9 power;
#X obj 39 321 throw~ speaker1;
#X obj 62 301 throw~ speaker2;
#X obj 85 281 throw~ speaker3;
#X obj 108 261 throw~ speaker4;
#X obj 151 79 line;
#X msg 151 61 \$1 200;
#X obj 265 44 unpack f f f;
#X obj 39 134 ambipan~ 4 p;
#X obj 39 61 SamplePlayer~ \$1;
#X text 49 43 sample player;
#X obj 39 26 inlet;
#X text 24 5 bang to play...;
#X text 299 355 LinePanPlayer~ patch by Ulrich Brandstätter 2013;
#X obj 425 117 r ambisonicCmd;
#X connect 0 0 11 0;
#X connect 3 0 12 0;
#X connect 9 0 3 1;
#X connect 10 0 9 0;
#X connect 11 0 10 0;
#X connect 11 1 12 1;
#X connect 11 2 12 2;
#X connect 12 0 5 0;
#X connect 12 1 6 0;
#X connect 12 2 7 0;
#X connect 12 3 8 0;
#X connect 13 0 3 0;
#X connect 15 0 13 0;
#X connect 18 0 12 0;
