#N canvas 329 1324 450 300 10;
#X obj 38 30 inlet~;
#X obj 38 220 outlet~;
#X obj 101 31 inlet;
#X text 100 11 peak;
#X obj 38 182 *~ 0;
#X obj 96 165 line 0 100;
#X msg 96 126 0 1000;
#X obj 96 69 t b f;
#X connect 0 0 4 0;
#X connect 2 0 7 0;
#X connect 4 0 1 0;
#X connect 5 0 4 1;
#X connect 6 0 5 0;
#X connect 7 0 6 0;
#X connect 7 1 5 0;
