#N canvas 2322 12 690 648 10;
#X declare -lib mrpeach;
#X declare -lib bsaylor;
#X declare -lib bsaylor;
#X declare -lib bsaylor;
#X declare -lib bsaylor;
#X declare -lib bsaylor;
#X obj -42 485 compressor~;
#X msg 390 454 \; pd dsp \$1;
#X obj 390 420 tgl 30 0 empty empty empty 17 7 0 10 -260097 -1 -1 1
1;
#X text 423 426 enable DSP;
#X obj -42 547 dac~ 1 2 3 4 5 6 7 8;
#X obj -42 467 hip~ 5;
#X obj 58 485 compressor~;
#X obj 58 467 hip~ 5;
#X obj 157 485 compressor~;
#X obj 157 467 hip~ 5;
#X obj 258 485 compressor~;
#X obj 258 467 hip~ 5;
#X text -44 385 speaker 1;
#X obj -42 402 catch~ speaker1;
#X obj 58 402 catch~ speaker2;
#X text 56 385 speaker 2;
#X text 156 385 speaker 3;
#X obj 158 402 catch~ speaker3;
#X text 256 385 speaker 4;
#X obj 258 402 catch~ speaker4;
#X obj 242 119 print OutOfBounds;
#X text 13 -13 Spatial Sound Cave main patch by Ulrich Brandstätter
2013;
#X obj 390 388 import mrpeach;
#X obj 11 21 udpreceive 12345;
#X obj 122 72 print UnknownOSCDomain;
#X obj 11 55 routeOSC /SonicCave;
#X obj 11 38 unpackOSC;
#X obj 56 223 DoPlay;
#X obj 101 155 DoPlay;
#X text 253 244 BUMP INTERACTION;
#X text 251 203 TOUCH INTERACTION;
#X text 251 176 HIT INTERACTION;
#X text 252 284 CAVE USER VELOCTIY;
#X text 252 310 CAVE USER POSITION;
#X obj 33 264 DoPlay;
#X obj 11 100 routeOSC /0 /1 /2 /3 /4 /5 /6 /7 /8 /9;
#X obj 474 595 s ambisonicCmd;
#X msg 474 560 set_offset \$1;
#X obj 474 544 nbx 5 14 -1e+037 1e+037 0 0 empty empty empty 0 -8 0
10 -262144 -1 -1 0.3 256;
#X obj 477 522 hsl 128 15 0 1 0 0 empty empty empty -2 -8 0 10 -262144
-1 -1 12700 1;
#X msg 403 578 get_info;
#X obj 56 240 LinePanPlayer~ hit+cross.wav;
#X obj 101 172 LinePanPlayer~ hit.wav;
#X obj 33 281 LinePanPlayer~ heart.wav;
#X obj 11 306 LinePanLooper~ harmonic_tense_dark.wav;
#X obj -39 420 env~;
#X obj -34 437 hsl 48 10 0 127 0 0 empty empty empty -2 -8 0 10 -257985
-1 -1 0 1;
#X obj 61 420 env~;
#X obj 66 437 hsl 48 10 0 127 0 0 empty empty empty -2 -8 0 10 -257985
-1 -1 0 1;
#X obj 161 420 env~;
#X obj 166 437 hsl 48 10 0 127 0 0 empty empty empty -2 -8 0 10 -257985
-1 -1 0 1;
#X obj 261 419 env~;
#X obj 266 436 hsl 48 10 0 127 0 0 empty empty empty -2 -8 0 10 -257985
-1 -1 0 1;
#X text 222 40;
#X obj 78 198 LinePanLooper~ touch.wav;
#X connect 0 0 4 0;
#X connect 2 0 1 0;
#X connect 5 0 0 0;
#X connect 6 0 4 1;
#X connect 7 0 6 0;
#X connect 8 0 4 2;
#X connect 9 0 8 0;
#X connect 10 0 4 3;
#X connect 11 0 10 0;
#X connect 13 0 5 0;
#X connect 13 0 45 0;
#X connect 14 0 7 0;
#X connect 14 0 47 0;
#X connect 17 0 9 0;
#X connect 17 0 49 0;
#X connect 19 0 11 0;
#X connect 19 0 51 0;
#X connect 23 0 26 0;
#X connect 25 0 35 0;
#X connect 25 1 24 0;
#X connect 26 0 25 0;
#X connect 27 0 41 0;
#X connect 27 1 41 1;
#X connect 28 0 42 0;
#X connect 28 1 42 1;
#X connect 34 0 43 0;
#X connect 34 1 43 1;
#X connect 35 0 44 0;
#X connect 35 1 34 0;
#X connect 35 2 27 0;
#X connect 35 3 54 0;
#X connect 35 4 28 0;
#X connect 35 10 20 0;
#X connect 37 0 36 0;
#X connect 38 0 37 0;
#X connect 39 0 38 0;
#X connect 40 0 36 0;
#X connect 45 0 46 0;
#X connect 47 0 48 0;
#X connect 49 0 50 0;
#X connect 51 0 52 0;
