#N canvas 125 827 1021 220 10;
#X declare -lib bsaylor;
#X declare -lib bsaylor;
#X declare -lib bsaylor;
#X declare -lib bsaylor;
#X declare -lib bsaylor;
#X declare -lib bsaylor;
#X declare -lib bsaylor;
#X declare -lib bsaylor;
#X declare -lib bsaylor;
#X declare -lib bsaylor;
#X obj 16 56 outlet~;
#X obj 147 56 outlet~;
#X obj 321 56 outlet~;
#X obj 453 56 outlet~;
#X obj 611 56 outlet~;
#X obj 89 103 outlet~;
#X obj 228 103 outlet~;
#X obj 394 103 outlet~;
#X obj 526 103 outlet~;
#X obj 659 103 outlet~;
#X obj 453 39 Looper SlowStrings2.wav;
#X obj 526 86 Looper Harp4.wav;
#X obj 611 39 Looper STS2.wav;
#X obj 659 86 Looper BottleChiff3.wav;
#X obj 321 39 Looper STS1.wav;
#X obj 394 86 Looper LOW-BELL.wav;
#X obj 16 39 Looper Viola2.wav;
#X obj 228 86 Looper UWash2.wav;
#X obj 89 86 Looper Drums5.wav;
#X obj 147 39 Looper UWash4.wav;
#X connect 10 0 3 0;
#X connect 11 0 8 0;
#X connect 12 0 4 0;
#X connect 13 0 9 0;
#X connect 14 0 2 0;
#X connect 15 0 7 0;
#X connect 16 0 0 0;
#X connect 17 0 6 0;
#X connect 18 0 5 0;
#X connect 19 0 1 0;
