#N canvas 432 312 770 519 10;
#X declare -lib mrpeach;
#X obj 31 12 import mrpeach;
#X obj 95 206 udpsend;
#X obj 95 234 tgl 15 0 empty empty empty 17 7 0 10 -262144 -1 -1 0
1;
#X text 113 232 connected;
#X msg 236 189 connect 127.0.0.1 12345;
#X msg 394 189 disconnect;
#X obj 95 189 packOSC;
#X floatatom 128 101 5 0 0 0 - - -;
#X text 104 83 sample idx;
#X obj 333 90 hsl 128 15 0 1 0 0 empty empty empty -2 -8 0 10 -262144
-1 -1 0 1;
#X obj 330 110 t b f;
#X text 330 70 volume;
#X obj 476 90 hsl 128 15 0 5 0 0 empty empty empty -2 -8 0 10 -262144
-1 -1 0 1;
#X obj 473 110 t b f;
#X text 473 70 distance;
#X obj 618 90 hsl 128 15 180 0 0 0 empty empty empty -2 -8 0 10 -262144
-1 -1 0 1;
#X obj 615 110 t b f;
#X text 615 70 angle;
#X text 54 55 sample test;
#X text 53 300 audio test;
#X obj 60 419 osc~ 220;
#X obj 120 435 *~ 0;
#X obj 141 420 tgl 15 0 empty empty empty 17 7 0 10 -262144 -1 -1 0
1;
#X obj 102 397 osc~ 220;
#X obj 162 413 *~ 0;
#X obj 183 398 tgl 15 0 empty empty empty 17 7 0 10 -262144 -1 -1 0
1;
#X obj 148 375 osc~ 220;
#X obj 208 391 *~ 0;
#X obj 229 376 tgl 15 0 empty empty empty 17 7 0 10 -262144 -1 -1 0
1;
#X obj 198 352 osc~ 220;
#X obj 258 368 *~ 0;
#X obj 279 353 tgl 15 0 empty empty empty 17 7 0 10 -262144 -1 -1 0
1;
#X obj 248 329 osc~ 220;
#X obj 308 345 *~ 0;
#X obj 329 330 tgl 15 0 empty empty empty 17 7 0 10 -262144 -1 -1 0
1;
#X obj 300 306 osc~ 220;
#X obj 360 322 *~ 0;
#X obj 381 307 tgl 15 0 empty empty empty 17 7 0 10 -262144 -1 -1 0
1;
#X obj 352 285 osc~ 220;
#X obj 412 301 *~ 0;
#X obj 433 286 tgl 15 0 empty empty empty 17 7 0 10 -262144 -1 -1 0
1;
#X obj 406 264 osc~ 220;
#X obj 466 280 *~ 0;
#X obj 487 265 tgl 15 0 empty empty empty 17 7 0 10 -262144 -1 -1 0
1;
#X text 401 15 Spatial Sound Cave test patch by Ulrich Brandstätter
2013;
#X msg 95 144 sendtyped /SonicCave/\$1 fff \$2 \$3 \$4;
#X obj 95 127 pack f f f f;
#X obj 120 490 dac~ 1 2 3 4 5 6 7 8 9 10;
#X obj 460 244 osc~ 220;
#X obj 520 260 *~ 0;
#X obj 541 245 tgl 15 0 empty empty empty 17 7 0 10 -262144 -1 -1 0
1;
#X obj 516 223 osc~ 220;
#X obj 576 239 *~ 0;
#X obj 597 224 tgl 15 0 empty empty empty 17 7 0 10 -262144 -1 -1 0
1;
#X msg 171 84 1;
#X msg 201 84 2;
#X msg 231 84 3;
#X msg 261 84 4;
#X msg 291 84 5;
#X connect 1 0 2 0;
#X connect 4 0 1 0;
#X connect 5 0 1 0;
#X connect 6 0 1 0;
#X connect 7 0 46 0;
#X connect 9 0 10 0;
#X connect 10 0 46 0;
#X connect 10 1 46 1;
#X connect 12 0 13 0;
#X connect 13 0 46 0;
#X connect 13 1 46 2;
#X connect 15 0 16 0;
#X connect 16 0 46 0;
#X connect 16 1 46 3;
#X connect 20 0 21 0;
#X connect 21 0 47 0;
#X connect 22 0 21 1;
#X connect 23 0 24 0;
#X connect 24 0 47 1;
#X connect 25 0 24 1;
#X connect 26 0 27 0;
#X connect 27 0 47 2;
#X connect 28 0 27 1;
#X connect 29 0 30 0;
#X connect 30 0 47 3;
#X connect 31 0 30 1;
#X connect 32 0 33 0;
#X connect 33 0 47 4;
#X connect 34 0 33 1;
#X connect 35 0 36 0;
#X connect 36 0 47 5;
#X connect 37 0 36 1;
#X connect 38 0 39 0;
#X connect 39 0 47 6;
#X connect 40 0 39 1;
#X connect 41 0 42 0;
#X connect 42 0 47 7;
#X connect 43 0 42 1;
#X connect 45 0 6 0;
#X connect 46 0 45 0;
#X connect 48 0 49 0;
#X connect 49 0 47 8;
#X connect 50 0 49 1;
#X connect 51 0 52 0;
#X connect 52 0 47 9;
#X connect 53 0 52 1;
#X connect 54 0 7 0;
#X connect 55 0 7 0;
#X connect 56 0 7 0;
#X connect 57 0 7 0;
#X connect 58 0 7 0;
